PathFileType	4	(X/Y/Z)	C:/Users/beibeiliu/ov580/test_trc\sequence.32_training_dense_left.trc
DataRate	CameraRate	NumFrames	NumMarkers	Units	OrigDataRate	OrigDataStartFrame	OrigNumFrames
120	120	18	19	mm	120	156	310
Frame#	Time	ThumbCMC			ThumbMCP			ThumbIP			ThumbTip			IndexMCP			IndexPIP			IndexTip			MiddleMCP			MiddlePIP			MiddleTip			RingMCP			RingPIP			RingTip			PinkyMCP			PinkyPIP			PinkyTip			BackHand1			BackHand2			BackHand3	
		X0	Y0	Z0	X1	Y1	Z1	X2	Y2	Z2	X3	Y3	Z3	X4	Y4	Z4	X5	Y5	Z5	X6	Y6	Z6	X7	Y7	Z7	X8	Y8	Z8	X9	Y9	Z9	X10	Y10	Z10	X11	Y11	Z11	X12	Y12	Z12	X13	Y13	Z13	X14	Y14	Z14	X15	Y15	Z15	X16	Y16	Z16	X17	Y17	Z17	X18	Y18	Z18	
155	1.29167	-195.512	45.5975	14.6154	-180.512	35.4219	-15.4453	-174.238	26.7459	-37.1764	-177.473	8.28801	-55.5969	-222.489	53.2968	-43.9643	-215.23	51.848	-71.8645	-199.199	42.8272	-89.2722	-239.787	31.9773	-46.6165	-236.13	30.7445	-77.733	-224.446	22.0342	-98.2334	-234.381	14.0089	-43.435	-219.868	4.81533	-65.8561	-191.877	3.31547	-63.9693	-238.797	-4.99379	-32.2605	-237.343	-10.2852	-51.3908	-232.833	-12.5588	-69.757	-239.275	17.102	4.21796	-236.115	17.54	32.8048	-231.345	38.8051	16.684	
156	1.3	-196.828	47.7389	11.4626	-180.882	39.0172	-13.9683	-173.894	29.7446	-38.2268	-172.271	12.4457	-54.0636	-225.76	48.9635	-47.5077	-218.21	48.6448	-70.8977	-200.763	42.9809	-88.0982	-241.402	29.1932	-49.3011	-238.405	27.9451	-75.317	-223.411	19.653	-99.4285	-235.553	9.05934	-45.8432	-215.988	9.02979	-65.998	-189.701	4.249	-62.9593	-235.591	-3.80224	-28.1299	-235.82	-7.84038	-49.1134	-231.631	-15.1515	-69.3523	-238.402	14.9972	2.70297	-234.898	17.8581	29.6116	-231.922	38.4865	12.1185	
157	1.30833	-196.256	51.2137	14.6054	-178.57	41.552	-10.5277	-172.713	31.4473	-36.5295	-174.889	12.9939	-51.1476	-225.124	53.7715	-45.1876	-218.218	51.1366	-69.0634	-199.41	46.1653	-89.1572	-239.705	28.3049	-45.5973	-236.886	29.3411	-76.1091	-220.142	19.2375	-100.476	-233.742	7.76973	-44.1189	-215.796	8.17389	-64.9039	-187.994	4.90865	-61.9679	-236.035	-6.67465	-30.3355	-234.283	-8.76541	-49.6895	-225.821	-9.99276	-69.7265	-239.39	12.3223	2.03332	-235.968	14.712	29.7158	-230.423	42.5834	15.096	
158	1.31667	-198.61	49.4079	12.1456	-178.424	43.266	-14.8199	-174.65	31.9761	-32.7607	-172.264	16.1525	-50.1089	-226.925	51.5612	-47.2068	-218.329	50.6638	-71.3013	-201.945	44.9694	-88.7784	-240.058	31.145	-50.6304	-237.68	28.9322	-73.6119	-221.759	19.9705	-97.0831	-233.634	8.9463	-47.6213	-215.07	9.0688	-65.6896	-190.162	5.03789	-63.9559	-235.286	-8.1919	-31.3349	-232.432	-13.0375	-48.3422	-222.827	-14.3405	-70.5238	-236.849	13.7385	5.37103	-236.311	14.1696	30.5524	-232.398	42.3174	13.8635	
159	1.325	-197.801	50.989	14.5355	-179.048	44.4833	-16.1099	-175.126	33.0808	-37.6902	-173.198	15.7358	-52.4272	-225.799	54.3003	-43.9643	-217.758	51.85	-73.8613	-203.42	44.4842	-87.5317	-239.603	28.3477	-46.7351	-236.39	25.2618	-76.1679	-219.222	20.9076	-98.6402	-232.2	7.69473	-44.3923	-213.802	9.89935	-65.6988	-187.584	8.31848	-61.6995	-233.742	-6.21643	-30.8217	-230.094	-9.75012	-50.1303	-225.399	-11.8964	-68.9796	-238.878	13.0549	5.5301	-237.224	14.5547	29.0085	-233.491	39.2188	12.721	
160	1.33333	-200.032	49.714	15.3825	-181.482	45.3734	-13.6177	-174.229	35.3596	-36.7897	-173.558	15.8526	-55.2593	-229.395	49.9254	-46.9587	-221.21	51.1841	-71.19	-201.792	45.6984	-90.6865	-240.053	29.5433	-50.0119	-235.721	26.4447	-76.5783	-217.279	19.0492	-100.524	-231.667	9.13241	-42.6555	-210.362	4.58118	-66.5794	-187.847	6.70769	-62.4079	-231.5	-9.73374	-29.2901	-227.892	-14.9291	-53.8502	-220.893	-13.2194	-73.2263	-238.946	15.954	1.07458	-234.43	17.3978	28.9848	-233.963	41.8145	15.0611	
161	1.34167	-202.113	50.8165	13.9894	-180.087	48.4337	-14.8566	-176.082	36.4069	-37.1521	-173.013	19.4931	-54.9601	-229.434	52.4613	-45.4744	-223.288	52.6721	-70.2174	-203.142	44.4296	-90.2537	-239.058	26.4588	-46.7828	-236.775	22.8647	-76.0612	-219.974	18.3571	-99.3034	-231.793	6.17441	-46.0271	-212.88	8.17584	-65.3605	-184.579	7.73182	-61.7371	-229.777	-9.95909	-28.5398	-226.914	-12.5146	-50.1367	-219.531	-18.4683	-69.4561	-237.994	12.6689	0.6358	-235.608	11.622	26.6338	-235.537	36.6932	12.2985	
162	1.35	-205.059	51.3891	12.2499	-183.399	49.3113	-16.0608	-174.756	40.7015	-35.4521	-173.444	23.5875	-51.7854	-232.583	52.1534	-46.3226	-223.7	48.2826	-75.0339	-204.463	45.4424	-91.8697	-241.59	25.527	-50.3545	-236.556	25.3877	-79.5236	-220.028	21.3365	-100.008	-230.371	8.28448	-48.457	-212.635	6.03922	-65.4687	-186.999	9.16386	-64.1384	-229.827	-11.7427	-31.7524	-224.722	-17.8616	-50.7569	-215.62	-19.378	-72.7583	-237.827	11.422	2.59372	-236.129	12.9072	26.1422	-235.744	40.8768	14.2744	
163	1.35833	-206.501	54.3791	10.6306	-186.027	52.0498	-13.0153	-177.322	41.5363	-39.2702	-171.79	26.2832	-52.0839	-234.023	49.5603	-47.3458	-226.332	47.7815	-74.667	-209.085	46.7046	-90.5445	-241.435	25.4437	-50.2621	-238.019	20.4072	-75.5962	-221.618	21.0485	-98.8553	-230.242	5.83679	-44.0434	-214.785	7.38601	-65.8007	-186.933	14.8849	-64.3511	-226.539	-9.65258	-30.4254	-223.272	-15.6238	-50.7756	-214.594	-18.6668	-67.5896	-238.581	9.83876	3.68705	-234.864	15.2018	28.8314	-235.887	39.8689	14.9067	
164	1.36667	-209.198	53.4206	10.4185	-187.858	53.3642	-13.273	-181.036	41.967	-36.0214	-172.661	28.6249	-53.0552	-236.748	50.0132	-48.7914	-229.386	50.78	-73.7158	-212.041	48.2314	-89.1179	-242.169	25.5435	-47.6429	-238.361	19.935	-77.0025	-220.183	17.7441	-100.2	-229.645	5.49716	-44.815	-212.701	4.29058	-66.2178	-189.695	15.175	-65.053	-223.935	-12.631	-28.2843	-220.963	-14.7361	-52.5849	-212.374	-15.4787	-72.3041	-235.394	8.43567	3.704	-233.836	9.87178	30.8462	-239.191	37.3221	11.6237	
165	1.375	-211.213	55.4179	10.3822	-191.291	53.2745	-13.5845	-182.073	43.7021	-37.1951	-175.144	28.0738	-51.6891	-238.939	48.881	-44.2526	-230.548	46.8343	-73.5473	-213.624	46.3592	-89.9446	-242.444	20.2717	-48.1953	-238.618	18.3645	-78.3381	-222.251	20.8156	-99.6621	-229.52	7.5366	-45.6466	-210.629	8.26066	-66.8663	-188.625	17.4377	-64.6702	-223.908	-11.0962	-31.4008	-218.412	-19.2219	-48.4035	-210.177	-15.7522	-67.6324	-237.419	5.9078	4.50386	-235.958	11.281	27.879	-240.892	32.561	13.3433	
166	1.38333	-212.267	57.2883	10.9798	-190.953	57.8218	-14.1966	-181.633	49.5395	-38.3663	-177.561	29.1842	-49.3803	-239.96	47.092	-43.2734	-233.524	47.5716	-72.8298	-214.575	52.2363	-91.9848	-244.459	19.6528	-49.7542	-239.337	17.4291	-77.1164	-221.734	17.8157	-99.6227	-228.5	1.37513	-42.8651	-212.257	7.79437	-64.7488	-187.535	15.0189	-63.2071	-219.965	-14.9299	-31.5867	-214.872	-14.9086	-51.9261	-206.309	-18.0857	-68.2658	-236.22	4.63134	5.44533	-233.78	12.069	29.9096	-240.282	36.4381	11.8039	
167	1.39167	-214.07	57.7277	15.033	-194.142	57.8539	-15.3908	-183.096	53.4953	-34.6447	-174.826	33.2379	-51.2104	-243.301	45.8398	-47.0257	-235.925	46.0132	-73.0882	-218	49.8282	-90.9097	-243.034	15.9959	-47.581	-240.424	14.5962	-74.0786	-220.926	14.0291	-98.3412	-227.321	4.27767	-41.1523	-209.753	6.56446	-65.2887	-184.963	18.5594	-61.9825	-219.087	-11.6349	-29.3091	-211.141	-18.1547	-48.4184	-202.712	-19.6295	-67.1866	-235.728	4.2915	3.24956	-232.009	9.56446	29.8846	-240.641	34.4033	11.3229	
168	1.4	-217.106	54.2703	12.105	-196.192	60.9339	-10.3124	-186.51	51.2686	-33.8897	-174.547	38.3888	-50.7477	-244.624	44.2585	-44.5694	-238.478	44.3429	-72.5035	-222.584	48.1697	-90.9031	-243.747	16.7951	-47.7966	-240.838	12.4946	-73.9515	-221.014	15.1689	-100.012	-224.645	2.50979	-46.5666	-208.452	10.9705	-64.7577	-187.675	21.5725	-62.0642	-215.513	-12.8232	-29.198	-208.964	-15.7048	-51.4505	-201.215	-13.9591	-66.5	-233.275	4.40286	5.10343	-230.848	6.09989	29.064	-243.432	32.2034	14.5732	
169	1.40833	-218.777	58.2162	16.7978	-200.125	57.902	-11.8713	-189.841	51.7433	-33.2693	-177.917	41.2342	-46.7707	-246.415	42.4766	-43.1752	-242.72	46.3802	-69.8828	-228.173	50.3674	-88.1482	-242.51	12.5338	-44.2121	-241.579	13.8364	-74.7707	-226.429	14.5688	-96.2127	-224.774	2.56399	-40.7495	-206.65	6.15025	-63.9875	-182.028	23.8616	-61.1988	-215.079	-10.7332	-29.9923	-204.407	-17.0101	-47.6602	-196.291	-14.7268	-65.2802	-232.338	5.01059	5.83485	-233.3	7.30058	31.7845	-243.67	27.8975	14.6659	
170	1.41667	-221.661	56.8108	13.171	-199.798	64.2202	-10.7429	-190.187	57.8997	-29.8098	-177.548	40.7237	-48.1148	-247.318	40.4692	-45.0536	-244.342	43.1789	-68.1508	-229.978	48.0366	-89.2291	-243.215	11.306	-45.7433	-242.323	13.0707	-74.5603	-224.536	10.851	-94.5323	-222.421	-0.0668094	-44.9884	-205.441	10.1217	-64.4539	-186.94	23.2955	-62.5208	-211.676	-14.0692	-26.4279	-206.159	-14.3752	-45.3445	-194.371	-11.7161	-66.9705	-229.538	1.29976	6.32111	-231.37	3.80742	31.6305	-243.853	26.7228	16.2788	
171	1.425	-223.145	57.1151	15.7283	-202.159	60.4036	-9.26861	-192.235	54.1615	-31.4071	-181.16	44.689	-45.1642	-248.291	40.3638	-44.6322	-244.492	40.3301	-67.1867	-231.734	46.7303	-89.7855	-243.014	11.7487	-44.4196	-242.263	10.5576	-69.393	-225.722	12.3653	-96.4715	-224.061	2.65361	-41.3977	-209.321	6.77041	-62.0921	-185.138	25.7343	-62.0951	-211.083	-12.8742	-24.5087	-205.005	-15.9809	-46.5914	-196.624	-13.0873	-63.1616	-230.325	0.677449	2.9969	-232.1	5.10098	34.2177	-244.103	30.23	16.76	
172	1.43333	-224.875	55.8371	15.9018	-203.92	64.9929	-9.4783	-195.019	56.4977	-31.9659	-179.904	48.2922	-48.5836	-248.654	38.659	-39.7229	-246.969	38.8616	-66.8376	-236.326	48.026	-87.2015	-240.596	9.92314	-42.1853	-241.865	9.46108	-70.9671	-224.751	11.1041	-97.8526	-224.214	1.7418	-44.1693	-206.844	9.12731	-63.4135	-186.169	23.6082	-60.8983	-208.222	-14.848	-24.5623	-202.098	-16.1691	-47.4458	-192.317	-15.2732	-67.5066	-232.3	3.93506	3.60092	-231.579	2.95984	30.9351	-243.382	23.7552	17.6254	
